<svg version="1" xmlns="http://www.w3.org/2000/svg" width="1133.333" height="1133.333" viewBox="0 0 850.000000 850.000000"><path d="M222.8 2.4c-23 8.2-39.9 38.4-44.6 79.6-.9 8.7-.9 38.7.1 47.5 3.8 32.5 15 65.1 31.3 91 3.1 4.9 5.9 9.2 6.3 9.5.4.3 1.8 2.1 3.1 4 3.9 5.6 7.8 9.9 18 20 33.4 32.9 79.4 50.5 135.3 51.5 10.4.2 17.5-.1 17.1-.6-.3-.5-1.4-.9-2.5-.9-2.5 0-20.1-4.4-28.9-7.2-54.7-17.6-101-58.4-125.2-110.3-12.4-26.6-17.5-53.1-14.2-72.6 3.1-17.5 11.2-26.9 24.2-28.3 9.5-.9 24 5 38.2 15.5 8.9 6.6 28 25.1 36.5 35.4 2.8 3.3 5.8 6.9 6.8 8 1 1.1 4.3 5.3 7.5 9.5 3.1 4.1 5.9 7.7 6.2 8 2.1 1.9 33 47.4 33 48.5 0 .3 1.1 2.3 2.5 4.3s2.5 3.4 2.5 3.2c0-1-4.1-13.1-9-27-2.9-8-5.6-15.6-6-17-.4-1.4-3.6-9.5-7-18-23.6-59.6-48-103-72.2-128.5-10-10.6-18-16.7-28.7-21.8-7.7-3.8-9.2-4.1-17.5-4.3-5.5-.2-10.5.2-12.8 1zM576.1 137.1c-25.5 5-52.2 18.7-71.4 36.8-6.6 6.2-17.4 17.5-19.8 20.6-1.3 1.6-2.6 3.2-2.9 3.5-1.2 1.1-6.9 8.9-10.7 14.5-11.6 17.4-23.8 40.8-31.2 60-2.4 6-4.7 11.8-5.2 12.7-.5 1-.9 2.3-.9 3 0 .6 2.9-3.5 6.5-9.2 22.3-35.1 48.8-61.5 79.8-79.4 5.4-3.1 9.9-5.6 10.2-5.6.2 0 3.6-1.5 7.7-3.4 10.3-4.7 26.2-9.6 36-11.1 8-1.3 26.6-1.3 32.8 0 19.3 3.9 29.3 12.4 30.7 26 2.3 21.8-25.5 49.7-75.2 75.4l-8 4.2 6.5-.6c3.6-.3 7.6-.7 9-.9 1.4-.3 4.3-.7 6.5-1.1 2.2-.3 6.5-1 9.5-1.5s7.1-1.2 9-1.5c11.1-1.9 35.7-8.9 45.5-13 23-9.6 38.9-21.1 48-34.8 19.1-28.8 3-66-37-85.1-7.8-3.8-16.5-6.9-24-8.5-2.7-.6-6.1-1.4-7.5-1.8-1.4-.3-9.7-.7-18.5-.8-12.3-.2-18.2.2-25.4 1.6zM191.1 321.6c-17.7 4.7-32.5 20.1-36.7 38-2 8.7-1.8 441.8.2 450.5 4.3 18.2 19.8 33.6 38.2 37.9 4 .9 55.8 1.2 225 1.2 120.8 0 221.2-.3 223-.6 1.8-.4 5.5-1.5 8.2-2.5 17.3-6.6 28.6-19.9 32.4-38.1 1.3-6.4 1.5-439.4.2-447-3.3-18.5-20.5-36-39.4-39.9-3.8-.8-68.4-1.1-225.5-1-188.5 0-221 .3-225.6 1.5zM435 399.5c47.1 8.2 81.2 49.3 81.2 97.8 0 22.8-5 36.5-22.5 62.4-16.6 24.5-21 36.2-22.3 58.6-.8 14.1-1 16.5-2.7 22.3-2.4 8.4-6.7 15.4-13.8 22.5-23.5 23.6-62 19.9-81-7.8-6.2-9-8.6-17.4-9.4-33.3-.3-5.8-.7-11.9-1-13.5-3.4-19.4-7-27.4-22.8-50.9-16.2-24.1-20.8-37-21-58.1-.2-13.4.7-20.2 3.8-30.8 10.6-36.2 41-63.2 78.5-69.6 8.3-1.4 23.7-1.2 33 .4zm-47.5 284.9c1.1.3 9 2.4 17.5 4.6 8.5 2.3 16.2 4.3 17 4.5.8.1 9.4 2.4 19 4.9 19.2 5.1 22 6.7 22 12.2 0 6.3-3.6 10.4-9 10.4-1.6 0-25-5.8-36-9-1.9-.6-8.7-2.4-15-4-26.2-6.8-27.1-7.1-29-10.3-2.1-3.5-1.8-8.1.7-11 3.1-3.4 5.7-3.9 12.8-2.3zm9.1 27.7c1.7.5 4 1.1 5 1.3 2.7.6 8 1.9 23.9 6.1 36.1 9.5 35 9.1 37 13.7 2.4 5.9-1.8 12.7-7.8 12.8-1.6 0-7.9-1.3-14-2.9-6.2-1.7-16.4-4.3-22.7-6-6.3-1.6-17.8-4.6-25.4-6.6-14.1-3.7-19.5-6.2-19.7-9.3-.7-6.9 1.9-11.7 6.5-12.4 2.1-.4 11.5 1.4 17.2 3.3zm6.5 26.8c10.7 2.8 27.2 7.1 36.6 9.5 9.5 2.5 18.2 5 19.3 5.6 5.2 2.8 5.3 12.3.3 15.6-3.4 2.2-6.5 2-17.3-.9-5.2-1.4-15.6-4.2-23-6.1-7.4-1.9-16.2-4.2-19.5-5.1-3.3-.9-6.7-1.8-7.5-2-13.8-3.3-17.5-5.1-19-9.1-1.2-3.1-.9-5.4 1.3-8.7 1.5-2.3 7.2-5 8.8-4.1.3.1 9.3 2.5 20 5.3z"/></svg>